# xmcd
#
# Track frame offsets:
# 150
# 20745
# 40342
# 58778
# 73462
# 88794
# 105367
# 121104
# 138055
# 155762
# 171714
# 192903
# 205751
# 221865
# 234983
# 251340
# 264998
# 282381
# 298441
# 313179
#
# Disc length: 4359 seconds
#
#
# Revision: 3
# Processed by: cddbd v1.5.1PL0 Copyright (c) Steve Scherf et al.
# Submitted via: FreeRIP 2.80 
#
DISCID=3d110514
DTITLE=Bruno e Marrone - As 20 Mais de...
DYEAR=1900
DGENRE=Sertaneja
TTITLE0=Por um minuto
TTITLE1=Meu Jeito De Sentir
TTITLE2=Fruto Especial
TTITLE3=Favo de Mel
TTITLE4=Dormi Na Praça
TTITLE5=Parabens Pro Nosso Amor
TTITLE6=Preciso Amar De Novo
TTITLE7=Vida Vazia
TTITLE8=Quem Manda é o Coracao
TTITLE9=Acorrentado Em Você
TTITLE10=Passou da conta
TTITLE11=E Nisso Que Da
TTITLE12=Como Ficar Sem Voce
TTITLE13=Alcapao
TTITLE14=Como eu te amo
TTITLE15=Apenas Um Sorriso
TTITLE16=Agarrado em mim
TTITLE17=Te Amo e Não Te Quero
TTITLE18=Sozinho Na Noite
TTITLE19=Tchau Amor
EXTD=
EXTT0=
EXTT1=
EXTT2=
EXTT3=
EXTT4=
EXTT5=
EXTT6=
EXTT7=
EXTT8=
EXTT9=
EXTT10=
EXTT11=
EXTT12=
EXTT13=
EXTT14=
EXTT15=
EXTT16=
EXTT17=
EXTT18=
EXTT19=
PLAYORDER=
